<svg xmlns="http://www.w3.org/2000/svg" xmlns:xlink="http://www.w3.org/1999/xlink" version="1.1" x="0px" y="0px" viewBox="0 0 100 70" enable-background="new 0 0 100 100" xml:space="preserve"><path fill="#6D6D6D" d="M95,47.347c-0.001,0-0.005,0-0.008,0c0-1.066,0.007-2.132,0.008-3.198v-2.532c-0.001-0.606-0.006-1.214-0.014-1.818  c-0.034-2.307-0.116-4.613-0.206-6.918c-0.021-0.46-0.156-0.918-0.274-1.367c-0.042-0.168-0.184-0.313-0.281-0.468  c-0.053,0.003-0.104,0.008-0.16,0.011c-0.048,0.25-0.121,0.497-0.14,0.749c-0.032,0.43-0.049,0.818-0.579,0.995  c-0.156,0.05-0.27,0.427-0.286,0.66c-0.09,1.239-0.171,2.478-0.197,3.719c-0.057,2.808-0.082,5.614-0.119,8.421  c-0.001,0.145,0,0.291-0.021,0.433c-0.223-1.304-0.077-2.658-0.504-3.931c-0.062-0.008-0.122-0.016-0.184-0.023  c-0.131,0.571-0.261,1.142-0.391,1.711c-0.062-0.006-0.121-0.014-0.18-0.021c-0.399-0.693-0.294-1.495-0.394-2.252  c-0.042,0-0.084,0-0.122-0.001c-0.098,1.591-0.198,3.18-0.299,4.771c-0.022-0.002-0.044-0.003-0.068-0.005  c-0.065-1.812-0.13-3.62-0.198-5.432c-0.04-0.001-0.081-0.001-0.121-0.003c-0.106,0.863-0.215,1.724-0.322,2.587  c-0.019,0-0.037,0-0.059,0c-0.062-1.474-0.122-2.944-0.185-4.416c-0.032,0-0.061,0-0.091,0.001  c-0.086,0.619-0.168,1.234-0.251,1.853c-0.055,0.001-0.107,0.001-0.161,0.003c-0.082-2.481-0.161-4.965-0.242-7.445  c-0.013,0-0.021,0-0.034,0c-0.111,1.978-0.223,3.954-0.333,5.932c-0.02,0-0.035,0-0.056,0c-0.061-1.981-0.119-3.962-0.178-5.943  c-0.045,0-0.093,0.001-0.137,0.001c-0.232,5.619-0.465,11.237-0.65,15.719c-0.155-6.045-0.338-13.218-0.53-20.392  c-0.009-0.313-0.13-0.626-0.27-0.941c-0.052,0.764-0.08,1.532-0.165,2.293c-0.085,0.778-0.225,1.55-0.338,2.322  c-0.065-0.001-0.13-0.005-0.195-0.008c-0.066-0.827-0.132-1.651-0.198-2.478c-0.014,0-0.026,0.001-0.039,0.001  c-0.101,0.966-0.204,1.936-0.307,2.901c-0.035-0.003-0.074-0.006-0.108-0.009c-0.071-1.988-0.143-3.976-0.212-5.963  c-0.039,0-0.079,0-0.119,0c-0.216,7.012-0.431,14.025-0.645,20.979c-0.108-2.175-0.22-4.415-0.331-6.652  c-0.044-0.001-0.09-0.003-0.134-0.003c-0.076,0.696-0.151,1.396-0.23,2.111c-0.085-1.331-0.147-2.638-0.265-3.942  c-0.025-0.293-0.245-0.563-0.359-0.852c-0.131-0.323-0.242-0.653-0.4-1.089c-0.283,2.722-0.059,5.388-0.715,8.069  c-0.187-1.796-0.363-3.492-0.543-5.187c-0.053,0-0.102-0.001-0.156-0.001c-0.082,0.734-0.162,1.467-0.243,2.201  c-0.31-2.43-0.026-4.895-0.523-7.3c-0.059-0.028-0.124-0.055-0.186-0.083c-0.039,0.086-0.105,0.168-0.118,0.258  c-0.13,0.987-0.779,1.811-0.761,2.871c0.033,1.74-0.098,3.481-0.153,5.224c-0.008,0.272,0,0.545-0.09,0.819  c-0.102-4.338-0.204-8.678-0.307-13.014c-0.019,0-0.037,0-0.054,0c-0.081,4.45-0.163,8.9-0.243,13.351c-0.018,0-0.033,0-0.05,0  c-0.107-4.134-0.217-8.27-0.325-12.403c-0.019,0-0.037,0-0.058,0c-0.079,2.837-0.156,5.674-0.233,8.512  c-0.037,0.001-0.073,0.004-0.108,0.006c-0.075-0.811-0.149-1.62-0.224-2.428c-0.046-0.002-0.093-0.002-0.138-0.004  c-0.076,3.411-0.151,6.823-0.228,10.231c-0.019,0-0.039,0-0.058,0.002c-0.349-7.026-0.695-14.052-1.041-21.079  c-0.026,0-0.054-0.001-0.08-0.001c-0.067,4.465-0.135,8.93-0.2,13.396c-0.016,0-0.027,0-0.037,0.002  c-0.068-2.177-0.127-4.354-0.214-6.529c-0.085-2.168-0.201-4.336-0.402-6.503c-0.422,4.118-0.348,8.244-0.446,12.368  c-0.111-3.864-0.224-7.727-0.336-11.591c-0.033-0.001-0.068-0.003-0.104-0.004c-0.015,0.153-0.021,0.308-0.054,0.456  c-0.141,0.655-0.322,1.303-0.423,1.963c-0.124,0.826-0.219,1.662-0.261,2.495c-0.117,2.238-0.176,4.479-0.308,6.716  c-0.05,0.833-0.231,1.658-0.367,2.484c-0.029,0.177-0.124,0.347-0.307,0.517c-0.093-0.326-0.187-0.653-0.279-0.981  c-0.034,0-0.071,0.001-0.104,0.001c0,0.227,0.017,0.453-0.005,0.677c-0.037,0.416-0.119,0.774-0.635,0.904  c-0.177,0.043-0.335,0.365-0.401,0.59c-0.095,0.319-0.095,0.665-0.214,1.006c-0.129-1.155-0.251-2.31-0.387-3.464  c-0.185-1.535-0.346-3.074-0.588-4.602c-0.077-0.478-0.387-0.917-0.712-1.372c-0.098,1.399-0.198,2.798-0.298,4.197  c-0.226-3.502-0.074-7.015-0.551-10.5c-0.572,0.517-0.261,1.232-0.509,1.864c-0.154-0.132-0.288-0.248-0.495-0.425  c-0.062,0.39-0.115,0.712-0.168,1.034c-0.024,0.005-0.051,0.009-0.077,0.015c-0.116-0.746-0.233-1.49-0.354-2.237  c-0.027,0-0.053,0-0.08,0c-0.05,0.481-0.1,0.959-0.148,1.439c-0.034,0.003-0.063,0.006-0.097,0.009  c-0.072-0.589-0.146-1.177-0.22-1.765c-0.047-0.002-0.096-0.004-0.141-0.005c-0.104,4.489-0.209,8.977-0.313,13.465  c-0.048,0.001-0.098,0.005-0.148,0.006c-0.068-0.885-0.135-1.771-0.201-2.655c-0.039,0.002-0.079,0.005-0.116,0.006  c-0.186,1.788-0.369,3.575-0.555,5.361c-0.037,0.001-0.074,0.003-0.111,0.004c-0.065-1.705-0.13-3.41-0.195-5.115  c-0.028-0.003-0.053-0.006-0.077-0.008c-0.239,1.024-0.478,2.048-0.713,3.072c-0.066-0.008-0.133-0.014-0.2-0.022  c-0.494-2.074-0.457-4.22-0.864-6.322c-0.077,0.789-0.156,1.579-0.233,2.367c-0.018,0.002-0.034,0.003-0.053,0.005  c-0.101-0.778-0.201-1.553-0.299-2.331c-0.039,0.001-0.078,0.001-0.116,0.003c-0.071,1.78-0.145,3.56-0.217,5.34  c-0.055,0.001-0.108,0.001-0.161,0.003c-0.177-2.059-0.354-4.117-0.527-6.177c-0.03-0.003-0.062-0.006-0.09-0.009  c-0.099,2.002-0.198,4.002-0.3,6.002c-0.047,0-0.097,0-0.143,0c0-1.028,0.021-2.061-0.01-3.089c-0.021-0.772-0.09-1.546-0.177-2.312  c-0.03-0.256-0.217-0.489-0.281-0.742c-0.111-0.449-0.231-0.906-0.27-1.365c-0.047-0.543-0.013-1.094-0.013-1.641  c-0.043-0.004-0.088-0.007-0.133-0.013c-0.198,1.586-0.398,3.171-0.597,4.757c-0.074-0.006-0.148-0.011-0.223-0.016  c-0.061-1.672-0.123-3.342-0.184-5.014c-0.011-0.001-0.02-0.004-0.032-0.008c-0.121,1.061-0.241,2.124-0.38,3.331  c-0.135-0.251-0.201-0.37-0.266-0.492c-0.036,0.001-0.07,0.001-0.104,0.003c-0.08,1.754-0.159,3.511-0.238,5.267  c-0.555-3.172-0.589-6.376-0.782-9.574c-0.104,3.704-0.209,7.408-0.312,11.111c-0.016,0-0.033,0-0.049,0  c-0.082-3.128-0.162-6.253-0.244-9.381c-0.019,0-0.037-0.001-0.059-0.001c-0.112,2.381-0.227,4.763-0.338,7.144  c-0.016,0-0.033,0.001-0.047,0.001c-0.08-3.842-0.164-7.685-0.244-11.527c-0.025-0.002-0.05-0.003-0.078-0.003  c-0.099,2.715-0.199,5.433-0.3,8.15c-0.026,0.001-0.053,0.001-0.078,0.001c-0.075-3.212-0.15-6.428-0.225-9.64  c-0.05,0-0.101,0-0.15,0.001c-0.526,6.125-0.39,12.273-0.637,18.408c-0.091-5.575-0.184-11.149-0.276-16.723  c-0.239,5.388-0.038,10.794-0.443,16.178c-0.047,0.015-0.093,0.032-0.141,0.045c-0.083-0.167-0.216-0.328-0.24-0.502  c-0.171-1.21-0.329-2.422-0.478-3.636c-0.031-0.245-0.003-0.495-0.117-0.753c-0.057,0.278-0.108,0.554-0.165,0.828  c-0.086,0.419-0.321,0.64-0.765,0.66c-0.468,0.021-0.796-0.135-0.901-0.61c-0.137-0.596-0.246-1.198-0.372-1.798  c-0.031-0.148-0.073-0.296-0.226-0.431c-0.104,1.748-0.208,3.496-0.312,5.244c-0.018,0-0.035,0-0.053,0.001  c-0.198-5.664-0.396-11.329-0.596-16.991c-0.041,0.002-0.083,0.002-0.127,0.003c-0.068,3.648-0.136,7.296-0.206,10.943  c-0.042,0-0.084,0.001-0.127,0.003c-0.415-3.794-0.474-7.607-0.548-11.418c-0.071,0-0.14-0.002-0.21-0.002  c-0.195,4.486-0.391,8.971-0.574,13.237c-0.091-2.498-0.188-5.22-0.286-7.94c-0.032,0-0.063,0.002-0.095,0.002  c-0.077,5.304-0.156,10.608-0.234,15.909c-0.009,0-0.021,0-0.032,0c-0.165-3.792-0.329-7.583-0.494-11.376  c-0.079-0.001-0.16-0.003-0.239-0.004c-0.061,0.99-0.138,1.978-0.173,2.968c-0.036,1.016-0.036,2.032-0.042,3.048  c-0.007,1.016-0.001,2.029-0.066,3.044c-0.221-2.367-0.189-4.755-0.722-7.092c-0.34,1.633,0.013,3.334-0.578,4.936  c-0.412-0.944-0.32-1.945-0.43-2.93c-0.385,1.553-0.306,3.187-0.763,4.722c-0.066,0-0.135-0.001-0.203-0.003  c-0.075-0.679-0.197-1.356-0.214-2.039c-0.061-2.145-0.077-4.291-0.118-6.437c-0.011-0.547-0.053-1.091-0.132-1.64  c-0.439,3.426-0.5,6.879-0.76,10.32c-0.073-2.688-0.147-5.379-0.222-8.067c-0.058-0.005-0.116-0.008-0.174-0.013  c-0.065,0.268-0.13,0.536-0.194,0.804c-0.047,0.004-0.095,0.009-0.142,0.012c-0.183-1.806-0.365-3.611-0.548-5.418  c-0.019-0.006-0.038-0.011-0.057-0.015c-0.098,0.872-0.217,1.742-0.291,2.615c-0.075,0.899-0.118,1.802-0.149,2.705  s-0.009,1.809-0.049,2.709c-0.039,0.895-0.128,1.787-0.279,2.68c-0.511-0.725-0.387-1.559-0.609-2.352  c-0.102,1.692-0.203,3.388-0.304,5.083c-0.01,0-0.02,0.001-0.027,0.001c-0.092-2.953-0.186-5.907-0.277-8.859  c-0.042-0.008-0.084-0.016-0.125-0.024c-0.06,0.09-0.121,0.179-0.258,0.382c-0.427-2.245-0.458-4.438-0.789-6.592  c-0.063,1.46-0.127,2.92-0.19,4.381c-0.03,0-0.059-0.002-0.088-0.002c-0.11-1.835-0.219-3.669-0.329-5.505  c-0.019,0.002-0.04,0.003-0.06,0.003c-0.07,1.981-0.143,3.964-0.213,5.945c-0.023,0-0.047,0-0.069,0.002  c-0.076-1.006-0.154-2.01-0.23-3.014c-0.042,0.001-0.086,0.001-0.131,0.001c-0.05,2.447-0.097,4.895-0.153,7.342  c-0.059,2.461-0.129,4.923-0.192,7.385c-0.08,0-0.16-0.001-0.239-0.001c-0.376-5.861-0.216-11.741-0.506-17.613  c-0.293,4.227-0.585,8.454-0.878,12.682c-0.045,0.001-0.087,0.001-0.132,0.003c-0.101-0.869-0.205-1.736-0.307-2.606  c-0.125,1.103,0.002,2.228-0.356,3.296c-0.053,0.01-0.104,0.02-0.157,0.029c-0.082-0.257-0.2-0.509-0.235-0.772  c-0.145-1.087-0.25-2.176-0.398-3.263c-0.04-0.301-0.181-0.59-0.363-0.877c-0.654,1.386-0.245,2.884-0.58,4.419  c-0.063-0.208-0.117-0.308-0.124-0.412c-0.129-2.414-0.261-4.831-0.379-7.245c-0.061-1.223-0.094-2.448-0.144-3.812  c-0.162,0.183-0.222,0.252-0.402,0.457c-0.087-1.455-0.166-2.787-0.247-4.12c-0.026,0-0.053,0-0.078,0  c-0.107,3.133-0.213,6.263-0.321,9.395c-0.012,0-0.028,0-0.041,0c-0.081-4.893-0.163-9.787-0.245-14.68  c-0.03,0-0.061-0.001-0.088-0.001c-0.1,2.398-0.201,4.795-0.301,7.193c-0.018,0-0.035,0.001-0.054,0.001  c0-0.171,0.005-0.345,0-0.516c-0.102-3.499-0.192-6.996-0.317-10.494c-0.025-0.705-0.184-1.406-0.282-2.107c-0.065,0-0.13,0-0.194,0  c-0.033,4.243-0.073,8.486-0.098,12.728c-0.013,2.29-0.002,4.581-0.002,6.87c-0.049,0-0.097,0-0.144,0  c-0.094-4.936-0.186-9.876-0.276-14.812c-0.435,7.354-0.407,14.733-1.229,22.07c-0.557-1.669-0.138-3.437-0.636-5.109  c-0.593,1.789-0.349,3.658-0.604,5.491c-0.034-0.245-0.065-0.492-0.102-0.736c-0.076-0.502-0.104-1.007-0.479-1.432  c-0.159-0.182-0.173-0.513-0.202-0.781c-0.068-0.651-0.106-1.304-0.167-2.089c-0.169,0.398-0.284,0.663-0.396,0.928  c-0.059-0.003-0.119-0.006-0.178-0.009c-0.53-0.926-0.352-1.991-0.463-3.08c-0.192,1.06-0.065,2.098-0.494,3.032  c-0.055,0.007-0.111,0.015-0.167,0.021c-0.09-0.385-0.2-0.769-0.265-1.159c-0.067-0.415-0.09-0.833-0.211-1.256  c-0.076,1.204-0.152,2.407-0.229,3.602c-0.272-0.535-0.599-1.017-0.768-1.549c-0.18-0.562-0.208-1.17-0.375-1.768  c-0.133,2.757-0.265,5.517-0.398,8.274c-0.065-0.001-0.127-0.001-0.191-0.003c-0.326-4.345-0.197-8.706-0.438-13.06  c-0.1,2.148-0.2,4.295-0.301,6.443c-0.035,0.001-0.07,0.004-0.106,0.007c-0.04-0.423-0.079-0.847-0.12-1.272  c-0.042-0.001-0.085-0.003-0.127-0.004c-0.113,2.749-0.227,5.497-0.34,8.247c-0.014,0-0.03,0-0.044,0  c-0.086-2.985-0.17-5.972-0.257-8.958c-0.016,0-0.032,0-0.045,0c-0.112,4.056-0.223,8.112-0.333,12.168c-0.007,0-0.015,0-0.021,0  c-0.102-5.214-0.202-10.428-0.303-15.64c-0.056-0.005-0.111-0.009-0.167-0.014c-0.045,0.081-0.089,0.162-0.134,0.243  c-0.05-0.002-0.097-0.003-0.146-0.005c-0.076-1.938-0.152-3.874-0.229-5.812c-0.011-0.001-0.022-0.001-0.033-0.001  c-0.106,3.184-0.214,6.367-0.322,9.55c-0.019,0.002-0.038,0.002-0.057,0.002c-0.205-3.685-0.409-7.37-0.614-11.056  c-0.019,0-0.038,0-0.057,0c-0.11,7.668-0.221,15.335-0.33,23.004c-0.015,0-0.029,0-0.042,0c-0.09-5.388-0.179-10.778-0.268-16.166  c-0.041,0-0.083,0-0.127,0c-0.093,1.307-0.185,2.615-0.277,3.923c-0.033,0.005-0.068,0.01-0.102,0.015  c-0.057-0.132-0.112-0.262-0.168-0.394c-0.035-0.003-0.071-0.006-0.107-0.009c-0.079,1.359-0.156,2.72-0.232,4.081  c-0.032,0.005-0.063,0.009-0.095,0.017c-0.073-0.216-0.148-0.43-0.222-0.645c-0.042,0-0.083,0.001-0.127,0.003  c-0.083,1.699-0.168,3.398-0.253,5.095c-0.025,0.001-0.049,0.001-0.073,0.001c-0.071-0.489-0.13-0.981-0.22-1.47  c-0.056-0.306-0.18-0.549-0.543-0.663c-0.177-0.054-0.301-0.339-0.412-0.539c-0.071-0.132-0.073-0.3-0.198-0.451  c-0.111,0.785-0.222,1.57-0.34,2.4c-0.193-1.602-0.383-3.16-0.572-4.719c-0.052,0.003-0.104,0.004-0.157,0.006  c-0.181,1.076,0.06,2.211-0.344,3.254c-0.056,0-0.11,0-0.165,0c-0.086-0.983-0.194-1.967-0.249-2.953  c-0.145-2.528-0.262-5.057-0.403-7.585c-0.03-0.531-0.1-1.061-0.19-1.583c-0.036-0.208-0.184-0.394-0.265-0.597  c-0.087-0.221-0.166-0.444-0.229-0.673c-0.05-0.174-0.074-0.358-0.198-0.533C8.371,35.104,8.447,40.459,8.21,45.8  c-0.139-6.867-0.06-13.74-0.498-20.598C7.65,25.2,7.59,25.199,7.53,25.197c-0.082,2.101-0.165,4.203-0.247,6.307  c-0.04,0.005-0.08,0.009-0.119,0.014c-0.067-0.334-0.132-0.669-0.197-1.004c-0.666,5.604-0.83,11.237-1.12,16.858  c-0.066-0.001-0.131-0.001-0.198-0.003c0-1.321,0.009-2.643-0.006-3.964c-0.003-0.321-0.055-0.646-0.139-0.955  c-0.04-0.143-0.229-0.362-0.322-0.35C5.125,42.109,5.062,42.136,5,42.176V57.17c0.037,1.367,0.073,2.739,0.111,4.108  c0.015,0,0.03,0.002,0.044,0.002c0.108-2.313,0.216-4.626,0.325-6.937c0.033-0.002,0.066-0.003,0.1-0.005  c0.066,1.281,0.133,2.562,0.2,3.845c0.016,0.001,0.033,0.003,0.049,0.005c0.095-1.268,0.191-2.535,0.286-3.802  c0.04,0.001,0.079,0.001,0.118,0.003c0.089,3.78,0.178,7.558,0.267,11.336c0.045,0.003,0.091,0.008,0.133,0.014  c0.043-0.272,0.087-0.542,0.13-0.812c0.059,0,0.116,0.002,0.174,0.003c0.074,3.884,0.145,7.767,0.218,11.652  c0.283-7.034,0.251-14.078,0.674-21.105c0.063,0.001,0.125,0.001,0.189,0.001c0.076,3.678,0.151,7.358,0.227,11.037  c0.021,0,0.041,0,0.063-0.002c0.089-3.11,0.176-6.222,0.265-9.334c0.03,0,0.059-0.002,0.087-0.004  c0.191,4.454,0.385,8.907,0.577,13.362c0.029,0.002,0.056,0.002,0.084,0.003c0.218-3.354,0.438-6.707,0.656-10.065  c0.04,0.004,0.081,0.004,0.121,0.004c0.053,0.762,0.103,1.528,0.157,2.292c0.056,0,0.111,0.003,0.168,0.003  c0.202-2.396,0.404-4.792,0.607-7.189c0.022-0.002,0.046-0.002,0.07-0.002c0.065,1.243,0.131,2.482,0.196,3.725  c0.034,0.007,0.068,0.012,0.103,0.018c0.068-0.101,0.138-0.205,0.287-0.423c0.124,0.807,0.229,1.496,0.333,2.186  c0.032,0,0.063-0.002,0.097-0.003c0.074-1.73,0.151-3.463,0.23-5.287c0.863,1.2,0.863,1.2,1.055,2.529  c0.062-0.221,0.124-0.441,0.186-0.663c0.62,5.662,0.482,11.357,1.069,17.017c0.468-6.789,0.289-13.591,0.531-20.385  c0.092,4.795,0.186,9.594,0.277,14.39c0.034,0,0.069,0,0.102,0.002c0.073-4.347,0.146-8.691,0.219-13.037  c0.021,0,0.04,0,0.059,0.001c0.125,4.081,0.251,8.161,0.374,12.243c0.082,0.001,0.162,0.003,0.244,0.004  c0.658-4.709,0.919-9.45,1.111-14.208c0.111,1.725,0.224,3.452,0.334,5.178c0.037,0,0.074,0,0.11,0  c0.046-0.488,0.094-0.974,0.14-1.459c0.027-0.003,0.054-0.007,0.081-0.01c0.062,0.671,0.151,1.342,0.178,2.011  c0.14,3.403,0.257,6.804,0.397,10.205c0.023,0.566,0.12,1.131,0.184,1.694c0.068,0,0.137,0,0.205,0  c0.063-0.542,0.165-1.084,0.18-1.626c0.079-2.677,0.138-5.354,0.199-8.03c0.011-0.515,0.001-1.03,0.065-1.549  c0.104,3.935,0.21,7.872,0.317,11.807c0.04,0.003,0.079,0.003,0.119,0.003c0.2-5.396,0.398-10.794,0.598-16.188  c0.02,0,0.038-0.001,0.058-0.001c0.077,3.019,0.154,6.042,0.231,9.062c0.012,0,0.027,0,0.04,0.002  c0.111-2.246,0.222-4.49,0.333-6.735c0.048-0.001,0.094-0.003,0.142-0.005c0.05,0.686,0.102,1.366,0.152,2.052  c0.016,0.001,0.033,0.001,0.051,0.001c0.114-0.933,0.227-1.866,0.341-2.8c0.015,0.002,0.03,0.003,0.042,0.005  c0.189,3.419,0.378,6.838,0.567,10.258c0.063-0.001,0.126-0.001,0.188-0.003c0.032-0.432,0.064-0.867,0.096-1.303  c0.035-0.489,0.255-0.774,0.79-0.765c0.414,0.003,0.498-0.317,0.515-0.632c0.044-0.855,0.038-1.711,0.098-2.562  c0.07-0.994,0.186-1.987,0.289-2.979c0.015-0.134,0.078-0.262,0.203-0.383c0.08,0.582,0.159,1.166,0.238,1.75  c0.344-2.228,0.141-4.49,0.591-6.706c0.472,1.486,0.086,3.085,0.646,4.562c0.43-0.548,0.406-1.196,0.55-1.821  c0.029,0.407,0.075,0.814,0.084,1.223c0.073,3.08,0.136,6.163,0.211,9.242c0.019,0.772,0.042,1.549,0.109,2.32  c0.022,0.243,0.267,0.474,0.273,0.714c0.08,3.519,0.138,7.034,0.198,10.549c0.01,0.597,0.041,1.196,0.003,1.791  c-0.032,0.5,0.164,0.63,0.554,0.521c-0.298-8.996-0.121-17.976,0.203-26.955c0.233,8.965,0.339,17.934,0.069,26.917  c0.535,0.144,0.572,0.117,0.578-0.485c0.044-4.919,0.086-9.841,0.131-14.762c0.002-0.257,0-0.515,0.094-0.773  c0.083,2.058,0.167,4.114,0.25,6.172c0.025,0,0.049,0.001,0.074,0.003c0.082-2.817,0.164-5.639,0.243-8.459  c0.038,0,0.076,0,0.112-0.002c0.103,1.249,0.205,2.497,0.308,3.746c0.019,0,0.039,0,0.057,0c0.063-1.489,0.127-2.982,0.189-4.47  c0.03-0.001,0.062-0.001,0.092-0.003c0.114,1.085,0.229,2.166,0.342,3.25c0.024,0,0.047,0,0.071,0  c0.205-3.404,0.41-6.812,0.619-10.291c0.203,3.468,0.403,6.858,0.603,10.248c0.029,0,0.058-0.003,0.086-0.003  c0.199-3.901,0.397-7.802,0.595-11.701c0.045,0,0.092,0,0.136,0c0.011,0.173,0.024,0.35,0.033,0.523  c0.053,0.998,0.081,1.999,0.168,2.994c0.032,0.353,0.231,0.689,0.318,1.039c0.081,0.344,0.153,0.695,0.162,1.047  c0.074,3.159,0.132,6.32,0.203,9.483c0.012,0.608,0.068,1.218,0.179,1.821c0.476-4.263,0.419-8.555,0.644-12.832  c0.099,3.91-0.034,7.826,0.372,11.724c0.06,0.003,0.118,0.006,0.179,0.009c0.057-0.451,0.149-0.901,0.164-1.354  c0.083-2.903,0.151-5.806,0.214-8.709c0.017-0.79,0.001-1.58,0.114-2.37c0.104,2.732,0.209,5.462,0.314,8.194  c0.042,0,0.087,0,0.13-0.003c0.044-0.754,0.088-1.507,0.131-2.262c0.017-0.003,0.035-0.006,0.05-0.006  c0.089,0.883,0.178,1.765,0.265,2.646c0.051,0,0.102-0.003,0.154-0.006c0.079-2.885,0.158-5.771,0.238-8.656  c0.033,0,0.065-0.001,0.097-0.001c0.092,2.542,0.182,5.085,0.272,7.629c0.021,0,0.04,0,0.061,0  c0.089-3.818,0.176-7.641,0.265-11.461c0.044-0.004,0.089-0.007,0.132-0.01c0.094,0.897,0.188,1.796,0.28,2.693  c0.032,0.002,0.062,0.005,0.094,0.008c0.045-0.289,0.089-0.575,0.133-0.862c0.04-0.011,0.08-0.022,0.119-0.032  c0.078,0.354,0.209,0.702,0.226,1.06c0.112,2.644,0.218,5.286,0.293,7.929c0.038,1.353,0.006,2.704,0.006,4.059  c0.077,0.001,0.157,0.003,0.233,0.005c0.192-3.546,0.383-7.094,0.576-10.641c0.008-0.002,0.016-0.002,0.025-0.003  c0.118,1.301,0.235,2.605,0.353,3.908c0.02,0,0.042,0,0.063,0c0.071-1.569,0.143-3.14,0.214-4.708c0.019,0,0.038,0,0.059,0  c0.114,1.524,0.229,3.049,0.342,4.571c0.02,0,0.037,0.002,0.056,0.002c0.078-2.51,0.156-5.018,0.232-7.526  c0.022-0.002,0.044-0.002,0.066-0.004c0.111,1.973,0.224,3.942,0.333,5.916c0.053,0,0.104,0,0.157,0  c0-1.484-0.012-2.965,0.006-4.448c0.004-0.498,0.049-1.001,0.139-1.489c0.037-0.2,0.241-0.37,0.37-0.555  c0.154,0.179,0.41,0.342,0.441,0.54c0.102,0.633,0.119,1.282,0.169,1.923c0.013,0.16,0.024,0.317,0.083,0.479  c0.195-1.496,0.389-2.993,0.582-4.488c0.062,0.003,0.125,0.006,0.188,0.008c0.188,2.595,0.376,5.188,0.565,7.783  c0.041,0.002,0.083,0.005,0.125,0.008c0.11-1.509-0.057-3.053,0.386-4.521c0.066-0.007,0.132-0.011,0.2-0.016  c0.07,0.297,0.164,0.59,0.205,0.892c0.045,0.313,0.038,0.636,0.059,1.004c0.148-0.047,0.245-0.081,0.416-0.137  c0.044,0.489,0.119,0.961,0.129,1.435c0.073,3.583,0.123,7.162,0.203,10.742c0.046,2.016,0.13,4.03,0.203,6.046  c0.008,0.237,0.056,0.476,0.083,0.713c0.056,0,0.11-0.004,0.164-0.004c0.095-6.614,0.189-13.231,0.283-19.846  c0.017-0.001,0.035-0.001,0.053-0.001c0.097,4.654,0.198,9.311,0.298,13.967c0.019,0,0.037,0,0.055,0  c0.087-5.983,0.173-11.968,0.26-17.951c0.016-0.001,0.033-0.001,0.051-0.001c0.119,4.034,0.236,8.069,0.355,12.104  c0.042,0.002,0.081,0.004,0.123,0.005c0.042-0.325,0.086-0.65,0.127-0.973c0.027,0,0.054,0,0.079,0  c0.096,1.747,0.192,3.491,0.288,5.239c0.038,0,0.078,0,0.115,0c0.198-4.784,0.399-9.565,0.599-14.35  c0.011,0,0.023-0.002,0.035-0.003c0.112,2.164,0.225,4.328,0.337,6.495c0.043,0,0.085-0.003,0.129-0.003  c0.044-0.505,0.09-1.013,0.135-1.521c0.03-0.004,0.062-0.01,0.092-0.013c0.104,0.412,0.21,0.825,0.315,1.236  c0.032,0.001,0.064,0.001,0.098,0.003c0.062-0.871,0.122-1.743,0.183-2.611c0.045-0.01,0.093-0.019,0.14-0.025  c0.116,0.31,0.233,0.623,0.39,1.035c0.052-0.523,0.098-0.928,0.137-1.331c0.023-0.003,0.045-0.008,0.068-0.008  c0.112,0.307,0.228,0.615,0.339,0.924c0.043-0.004,0.093-0.007,0.138-0.01c0.059-0.867,0.116-1.732,0.174-2.599  c0.035-0.002,0.074-0.005,0.109-0.007c0.112,0.473,0.225,0.944,0.358,1.517c0.077-0.682,0.14-1.258,0.204-1.832  c0.078,0.005,0.156,0.01,0.231,0.015c0.419,4.61,0.405,9.245,0.629,13.87c0.075-5.978,0.151-11.955,0.229-17.931  c0.028,0.001,0.056,0.001,0.081,0.001c0.09,5.597,0.177,11.194,0.263,16.79c0.038,0.001,0.076,0.001,0.115,0.003  c0.064-2.84,0.133-5.679,0.201-8.52c0.319,2.125,0.23,4.3,0.972,6.36c0.481-1.695,0.079-3.48,0.605-5.168  c0.505,1.099,0.344,2.294,0.595,3.436c0.106-4.95,0.217-9.9,0.325-14.851c0.013,0,0.028,0,0.039,0  c0.069,4.065,0.138,8.132,0.206,12.197c0.03,0.002,0.062,0.002,0.093,0.003c0.235-2.077,0.471-4.152,0.703-6.231  c0.021,0.002,0.043,0.003,0.063,0.005c0.073,4.856,0.147,9.711,0.22,14.568c0.021,0,0.039,0,0.059,0  c0.098-3.595,0.199-7.188,0.3-10.781c0.032,0,0.064,0.003,0.098,0.003c0.071,2.119,0.144,4.241,0.215,6.36  c0.024,0,0.045-0.003,0.068-0.003c0.105-1.861,0.214-3.727,0.317-5.589c0.15,1.413,0.039,2.843,0.502,4.223  c0.555-1.865,0.367-3.795,0.604-5.7c0.07,0.647,0.144,1.29,0.215,1.937c0.034,0.003,0.065,0.006,0.1,0.008  c0.111-0.9,0.225-1.804,0.337-2.705c0.118,1.9,0.155,3.794,0.562,5.649c0.062,0,0.123,0,0.187-0.003  c0.086-2.584,0.166-5.165,0.25-7.749c0.009,0,0.02,0,0.031,0c0.114,3.692,0.23,7.383,0.344,11.074c0.012,0,0.021,0,0.032,0  c0.088-2.86,0.172-5.717,0.259-8.578c0.034,0.002,0.071,0.002,0.105,0.003c0.104,0.222,0.207,0.438,0.312,0.658  c0.062,0,0.122,0.002,0.185,0.002c0.082-0.426,0.212-0.845,0.24-1.273c0.059-0.9,0.064-1.806,0.102-2.708  c0.013-0.272,0.028-0.554,0.107-0.811c0.048-0.158,0.222-0.277,0.336-0.413c0.134,0.138,0.336,0.256,0.384,0.421  c0.094,0.32,0.128,0.667,0.14,1.003c0.06,1.676,0.103,3.352,0.192,5.033c0.108-2.025,0.219-4.055,0.328-6.082  c0.57,4.629,0.564,9.286,0.747,13.939c0.105-5.347,0.21-10.694,0.314-16.043c0.004,0,0.009,0,0.012,0  c0.102,5.823,0.202,11.641,0.3,17.462c0.056,0.003,0.109,0.007,0.165,0.013c0.095-0.51,0.187-1.021,0.28-1.53  c0.068-0.007,0.14-0.016,0.211-0.023c0.177,0.764,0.358,1.529,0.536,2.294c0.5-5.586,0.275-11.193,0.824-16.765  c0.376,4.152,0.244,8.318,0.412,12.481c0.285-1.94,0.566-3.877,0.851-5.817c0.049,0.003,0.101,0.004,0.149,0.006  c0.137,1.929,0.273,3.858,0.406,5.785c0.017-0.003,0.032-0.003,0.047-0.006c0.077-2.432,0.151-4.864,0.229-7.299  c0.034-0.003,0.065-0.005,0.1-0.007c0.104,1.123,0.211,2.246,0.312,3.334c0.206-2.565,0.416-5.162,0.624-7.761  c0.045,0,0.093,0,0.14-0.001c0.026,0.446,0.049,0.896,0.08,1.344c0.031,0.468,0.05,0.936,0.105,1.398  c0.05,0.453,0.14,0.899,0.211,1.352c0.08-0.002,0.159-0.003,0.236-0.005c0.052-0.671,0.104-1.338,0.15-2.008  c0.044-0.688,0.078-1.373,0.195-2.059c0.37,2.062,0.434,4.14,0.465,6.218c0.029,2.082,0.006,4.161,0.006,6.241  c0.065,0.002,0.131,0.002,0.195,0.003c0.107-2.656,0.214-5.314,0.322-7.967c0.021,0,0.042-0.003,0.065-0.003  c0.083,4.17,0.167,8.34,0.251,12.51c0.034,0,0.067,0.004,0.102,0.007c0.021-0.272,0.033-0.546,0.062-0.815  c0.143-1.219-0.013-2.481,0.556-3.637c0.092-2.692,0.179-5.385,0.277-8.076c0.093-2.546,0.198-5.094,0.301-7.638  c0.009-0.17,0.047-0.338,0.186-0.501c0.086,4.938,0.171,9.876,0.254,14.812c0.034,0,0.065,0,0.1,0  c0.088-2.038,0.177-4.074,0.265-6.112c0.039-0.003,0.081-0.003,0.119-0.003c0.056,0.91,0.108,1.818,0.163,2.73  c0.023,0.002,0.042,0.005,0.062,0.006c0.116-1.31,0.234-2.619,0.352-3.933c0.031,0,0.06,0,0.092,0  c0.045,0.494,0.093,0.991,0.14,1.487c0.038,0,0.08,0.001,0.119,0.003c0.103-1.75,0.204-3.496,0.304-5.244  c0.03,0,0.059-0.002,0.09-0.002c0.085,4.744,0.169,9.485,0.254,14.23c0.023,0,0.045,0,0.068,0C78,65.953,78.09,62.296,78.18,58.636  c0.032,0,0.062,0,0.095-0.002c0.091,5.82,0.181,11.64,0.271,17.458c0.013,0,0.025,0,0.034,0c0.103-6.839,0.208-13.683,0.31-20.522  c0.029,0,0.055,0,0.081,0c0.043,2.157,0.079,4.314,0.13,6.475c0.053,2.168,0.095,4.34,0.372,6.496c0.063,0,0.128,0,0.193,0  c0.085-1.95,0.166-3.903,0.249-5.854c0.007,0,0.011,0,0.018,0.001c0.114,1.852,0.23,3.704,0.349,5.557  c0.071,0,0.146,0.002,0.22,0.002c0.084-0.781,0.206-1.559,0.245-2.341c0.117-2.286,0.191-4.577,0.305-6.863  c0.032-0.718,0.14-1.43,0.212-2.145c0.065-0.01,0.127-0.019,0.19-0.027c0.153,0.49,0.364,0.97,0.448,1.472  c0.14,0.823,0.198,1.66,0.291,2.492c0.028,0.24,0.019,0.494,0.098,0.714c0.068,0.19,0.23,0.47,0.367,0.481  c0.166,0.015,0.415-0.178,0.516-0.347c0.605-1.018,0.695-2.164,0.767-3.309c0.031-0.475,0.005-0.95,0.005-1.425  c0.051,0,0.104-0.002,0.159-0.004c0.094,0.345,0.185,0.689,0.279,1.032c0.027-0.003,0.056-0.006,0.084-0.009  c0.135-1.949,0.27-3.895,0.404-5.844c0.051,0,0.101,0,0.151-0.003c0.029,0.36,0.079,0.719,0.085,1.079  c0.071,3.661,0.134,7.321,0.198,10.984c0.065,3.741,0.131,7.485,0.198,11.226c0.007,0.366,0.056,0.731,0.084,1.096  c0.056-0.002,0.111-0.002,0.17-0.002c0.098-2.104,0.187-4.21,0.3-6.316c0.109-2.092,0.249-4.183,0.376-6.273  c0.047,0,0.095-0.003,0.143-0.003c0.053,0.91,0.108,1.821,0.164,2.735c0.04,0,0.084,0,0.124,0c0.108-3.574,0.217-7.148,0.314-10.436  c0.182,5.058,0.376,10.404,0.568,15.752c0.065,0,0.127,0,0.192,0c0.154-3.842,0.006-7.711,0.907-11.481  c0.056-0.003,0.112-0.007,0.164-0.007c0.068,0.222,0.134,0.443,0.198,0.666c0.033,0.002,0.062,0.005,0.092,0.007  c0.085-1.231,0.169-2.466,0.253-3.697c0.029-0.005,0.059-0.012,0.088-0.017c0.068,0.231,0.098,0.485,0.219,0.69  c0.108,0.188,0.31,0.325,0.471,0.486c0.13-0.187,0.352-0.363,0.368-0.558c0.1-0.993,0.146-1.992,0.2-2.989  c0.017-0.289,0.003-0.58,0.092-0.873c0.071,0.532,0.109,1.073,0.23,1.595c0.066,0.295,0.286,0.553,0.401,0.838  c0.136,0.338,0.232,0.692,0.379,1.131c0.097-0.87,0.185-1.677,0.274-2.482c0.047,0.002,0.093,0.004,0.14,0.005  c0.093,4.843,0.185,9.685,0.275,14.53c0.01,0,0.016,0,0.025,0c0.104-5.428,0.212-10.853,0.318-16.279c0.019,0,0.039,0,0.06,0.001  c0.083,5.444,0.165,10.888,0.246,16.331c0.05,0.003,0.101,0.003,0.15,0.006c0.087-1.913,0.17-3.828,0.257-5.742  c0.016,0.001,0.031,0.001,0.047,0.001c0.083,2.256,0.167,4.51,0.247,6.765c0.03,0,0.057,0,0.086,0  c0.048-2.474,0.094-4.945,0.146-7.419c0.053-2.471,0.078-4.94,0.354-7.396c0.065,0,0.127,0,0.192,0  c0.062,1.615,0.119,3.229,0.178,4.844V47.347H95z"/></svg>